<mxfile host="app.diagrams.net" modified="2023-06-07T23:08:28.550Z" agent="Mozilla/5.0 (Windows NT 10.0; Win64; x64) AppleWebKit/537.36 (KHTML, like Gecko) Chrome/113.0.0.0 Safari/537.36" etag="9m7n75roXgANXdagKpAT" version="21.3.7" type="github">
  <diagram name="Page-1" id="2YBvvXClWsGukQMizWep">
    <mxGraphModel dx="1304" dy="699" grid="1" gridSize="10" guides="1" tooltips="1" connect="1" arrows="1" fold="1" page="1" pageScale="1" pageWidth="850" pageHeight="1100" math="0" shadow="0">
      <root>
        <mxCell id="0" />
        <mxCell id="1" parent="0" />
        <mxCell id="aM9ryv3xv72pqoxQDRHE-5" value=":LibratySystem" style="shape=umlLifeline;perimeter=lifelinePerimeter;whiteSpace=wrap;html=1;container=0;dropTarget=0;collapsible=0;recursiveResize=0;outlineConnect=0;portConstraint=eastwest;newEdgeStyle={&quot;edgeStyle&quot;:&quot;elbowEdgeStyle&quot;,&quot;elbow&quot;:&quot;vertical&quot;,&quot;curved&quot;:0,&quot;rounded&quot;:0};" parent="1" vertex="1">
          <mxGeometry x="285" y="70" width="100" height="530" as="geometry" />
        </mxCell>
        <mxCell id="aM9ryv3xv72pqoxQDRHE-6" value="" style="html=1;points=[];perimeter=orthogonalPerimeter;outlineConnect=0;targetShapes=umlLifeline;portConstraint=eastwest;newEdgeStyle={&quot;edgeStyle&quot;:&quot;elbowEdgeStyle&quot;,&quot;elbow&quot;:&quot;vertical&quot;,&quot;curved&quot;:0,&quot;rounded&quot;:0};" parent="aM9ryv3xv72pqoxQDRHE-5" vertex="1">
          <mxGeometry x="45" y="80" width="10" height="50" as="geometry" />
        </mxCell>
        <mxCell id="l3TF9qGdZywSD0NFVplU-1" value=":Catalog" style="shape=umlLifeline;perimeter=lifelinePerimeter;whiteSpace=wrap;html=1;container=0;dropTarget=0;collapsible=0;recursiveResize=0;outlineConnect=0;portConstraint=eastwest;newEdgeStyle={&quot;edgeStyle&quot;:&quot;elbowEdgeStyle&quot;,&quot;elbow&quot;:&quot;vertical&quot;,&quot;curved&quot;:0,&quot;rounded&quot;:0};" vertex="1" parent="1">
          <mxGeometry x="415" y="70" width="100" height="530" as="geometry" />
        </mxCell>
        <mxCell id="l3TF9qGdZywSD0NFVplU-30" value="" style="html=1;points=[];perimeter=orthogonalPerimeter;outlineConnect=0;targetShapes=umlLifeline;portConstraint=eastwest;newEdgeStyle={&quot;edgeStyle&quot;:&quot;elbowEdgeStyle&quot;,&quot;elbow&quot;:&quot;vertical&quot;,&quot;curved&quot;:0,&quot;rounded&quot;:0};fontSize=16;" vertex="1" parent="l3TF9qGdZywSD0NFVplU-1">
          <mxGeometry x="45" y="100" width="10" height="20" as="geometry" />
        </mxCell>
        <mxCell id="l3TF9qGdZywSD0NFVplU-5" value=":NotificationService" style="shape=umlLifeline;perimeter=lifelinePerimeter;whiteSpace=wrap;html=1;container=0;dropTarget=0;collapsible=0;recursiveResize=0;outlineConnect=0;portConstraint=eastwest;newEdgeStyle={&quot;edgeStyle&quot;:&quot;elbowEdgeStyle&quot;,&quot;elbow&quot;:&quot;vertical&quot;,&quot;curved&quot;:0,&quot;rounded&quot;:0};" vertex="1" parent="1">
          <mxGeometry x="550" y="70" width="100" height="530" as="geometry" />
        </mxCell>
        <mxCell id="l3TF9qGdZywSD0NFVplU-6" value="" style="html=1;points=[];perimeter=orthogonalPerimeter;outlineConnect=0;targetShapes=umlLifeline;portConstraint=eastwest;newEdgeStyle={&quot;edgeStyle&quot;:&quot;elbowEdgeStyle&quot;,&quot;elbow&quot;:&quot;vertical&quot;,&quot;curved&quot;:0,&quot;rounded&quot;:0};" vertex="1" parent="l3TF9qGdZywSD0NFVplU-5">
          <mxGeometry x="45" y="270" width="10" height="30" as="geometry" />
        </mxCell>
        <mxCell id="l3TF9qGdZywSD0NFVplU-10" value="sd library" style="shape=umlFrame;whiteSpace=wrap;html=1;pointerEvents=0;fontSize=16;width=90;height=30;" vertex="1" parent="1">
          <mxGeometry x="70" y="10" width="600" height="610" as="geometry" />
        </mxCell>
        <mxCell id="l3TF9qGdZywSD0NFVplU-11" value="alt" style="shape=umlFrame;whiteSpace=wrap;html=1;pointerEvents=0;fontSize=16;" vertex="1" parent="1">
          <mxGeometry x="90" y="280" width="540" height="180" as="geometry" />
        </mxCell>
        <mxCell id="l3TF9qGdZywSD0NFVplU-13" value="" style="endArrow=classic;html=1;rounded=0;fontSize=12;startSize=8;endSize=8;curved=1;entryX=-0.015;entryY=-0.028;entryDx=0;entryDy=0;entryPerimeter=0;" edge="1" parent="1" target="aM9ryv3xv72pqoxQDRHE-6">
          <mxGeometry width="50" height="50" relative="1" as="geometry">
            <mxPoint x="162.5" y="148.59999999999997" as="sourcePoint" />
            <mxPoint x="270" y="180" as="targetPoint" />
          </mxGeometry>
        </mxCell>
        <mxCell id="l3TF9qGdZywSD0NFVplU-18" value="&lt;font style=&quot;font-size: 10px;&quot;&gt;Search for a book&lt;/font&gt;" style="edgeLabel;html=1;align=center;verticalAlign=middle;resizable=0;points=[];fontSize=16;" vertex="1" connectable="0" parent="l3TF9qGdZywSD0NFVplU-13">
          <mxGeometry x="-0.06" y="1" relative="1" as="geometry">
            <mxPoint x="-23" y="-10" as="offset" />
          </mxGeometry>
        </mxCell>
        <mxCell id="l3TF9qGdZywSD0NFVplU-19" value="" style="endArrow=classic;html=1;rounded=0;fontSize=12;startSize=8;endSize=8;curved=1;" edge="1" parent="1">
          <mxGeometry width="50" height="50" relative="1" as="geometry">
            <mxPoint x="330" y="200" as="sourcePoint" />
            <mxPoint x="162.5" y="200" as="targetPoint" />
          </mxGeometry>
        </mxCell>
        <mxCell id="l3TF9qGdZywSD0NFVplU-20" value="&lt;font style=&quot;font-size: 10px;&quot;&gt;Display book details&lt;/font&gt;" style="edgeLabel;html=1;align=center;verticalAlign=middle;resizable=0;points=[];fontSize=16;" vertex="1" connectable="0" parent="l3TF9qGdZywSD0NFVplU-19">
          <mxGeometry x="-0.0618" relative="1" as="geometry">
            <mxPoint x="-28" y="-11" as="offset" />
          </mxGeometry>
        </mxCell>
        <mxCell id="l3TF9qGdZywSD0NFVplU-24" value="" style="html=1;points=[];perimeter=orthogonalPerimeter;outlineConnect=0;targetShapes=umlLifeline;portConstraint=eastwest;newEdgeStyle={&quot;edgeStyle&quot;:&quot;elbowEdgeStyle&quot;,&quot;elbow&quot;:&quot;vertical&quot;,&quot;curved&quot;:0,&quot;rounded&quot;:0};" vertex="1" parent="1">
          <mxGeometry x="330" y="240" width="10" height="220" as="geometry" />
        </mxCell>
        <mxCell id="l3TF9qGdZywSD0NFVplU-26" value="" style="endArrow=classic;html=1;rounded=0;fontSize=12;startSize=8;endSize=8;curved=1;" edge="1" parent="1" target="l3TF9qGdZywSD0NFVplU-24">
          <mxGeometry width="50" height="50" relative="1" as="geometry">
            <mxPoint x="162.5" y="240" as="sourcePoint" />
            <mxPoint x="317" y="236.79000000000002" as="targetPoint" />
          </mxGeometry>
        </mxCell>
        <mxCell id="l3TF9qGdZywSD0NFVplU-27" value="&lt;font style=&quot;font-size: 10px;&quot;&gt;Reserve the book&lt;/font&gt;" style="edgeLabel;html=1;align=center;verticalAlign=middle;resizable=0;points=[];fontSize=16;" vertex="1" connectable="0" parent="l3TF9qGdZywSD0NFVplU-26">
          <mxGeometry x="-0.0618" relative="1" as="geometry">
            <mxPoint x="-23" y="-11" as="offset" />
          </mxGeometry>
        </mxCell>
        <mxCell id="l3TF9qGdZywSD0NFVplU-31" value="&lt;font style=&quot;font-size: 10px;&quot;&gt;Retrieve book information&lt;/font&gt;" style="html=1;verticalAlign=bottom;endArrow=classic;edgeStyle=elbowEdgeStyle;elbow=vertical;curved=0;rounded=0;fontSize=12;startSize=8;endSize=8;endFill=1;" edge="1" target="l3TF9qGdZywSD0NFVplU-30" parent="1" source="aM9ryv3xv72pqoxQDRHE-6">
          <mxGeometry x="-0.1667" relative="1" as="geometry">
            <mxPoint x="370" y="190" as="sourcePoint" />
            <Array as="points">
              <mxPoint x="450" y="170" />
            </Array>
            <mxPoint as="offset" />
          </mxGeometry>
        </mxCell>
        <mxCell id="l3TF9qGdZywSD0NFVplU-32" value="&lt;font style=&quot;font-size: 10px;&quot;&gt;Book details&lt;/font&gt;" style="html=1;verticalAlign=bottom;endArrow=classic;dashed=1;endSize=8;edgeStyle=elbowEdgeStyle;elbow=vertical;curved=0;rounded=0;fontSize=12;endFill=1;" edge="1" source="l3TF9qGdZywSD0NFVplU-30" parent="1" target="aM9ryv3xv72pqoxQDRHE-6">
          <mxGeometry relative="1" as="geometry">
            <mxPoint x="370" y="265" as="targetPoint" />
            <Array as="points">
              <mxPoint x="360" y="190" />
            </Array>
            <mxPoint as="offset" />
          </mxGeometry>
        </mxCell>
        <mxCell id="l3TF9qGdZywSD0NFVplU-34" value="&lt;br&gt;&lt;span style=&quot;color: rgb(0, 0, 0); font-family: Helvetica; font-size: 12px; font-style: normal; font-variant-ligatures: normal; font-variant-caps: normal; font-weight: 400; letter-spacing: normal; orphans: 2; text-align: center; text-indent: 0px; text-transform: none; widows: 2; word-spacing: 0px; -webkit-text-stroke-width: 0px; background-color: rgb(251, 251, 251); text-decoration-thickness: initial; text-decoration-style: initial; text-decoration-color: initial; float: none; display: inline !important;&quot;&gt;&lt;br&gt;&lt;br&gt;Student:User&lt;/span&gt;" style="shape=umlLifeline;perimeter=lifelinePerimeter;whiteSpace=wrap;html=1;container=1;dropTarget=0;collapsible=0;recursiveResize=0;outlineConnect=0;portConstraint=eastwest;newEdgeStyle={&quot;edgeStyle&quot;:&quot;elbowEdgeStyle&quot;,&quot;elbow&quot;:&quot;vertical&quot;,&quot;curved&quot;:0,&quot;rounded&quot;:0};participant=umlActor;fontSize=16;" vertex="1" parent="1">
          <mxGeometry x="151" y="60" width="20" height="540" as="geometry" />
        </mxCell>
        <mxCell id="l3TF9qGdZywSD0NFVplU-35" value="" style="html=1;points=[];perimeter=orthogonalPerimeter;outlineConnect=0;targetShapes=umlLifeline;portConstraint=eastwest;newEdgeStyle={&quot;edgeStyle&quot;:&quot;elbowEdgeStyle&quot;,&quot;elbow&quot;:&quot;vertical&quot;,&quot;curved&quot;:0,&quot;rounded&quot;:0};fontSize=16;" vertex="1" parent="1">
          <mxGeometry x="460" y="249.72" width="10" height="20" as="geometry" />
        </mxCell>
        <mxCell id="l3TF9qGdZywSD0NFVplU-36" value="&lt;font style=&quot;font-size: 10px;&quot;&gt;Retrieve book availability&lt;/font&gt;" style="html=1;verticalAlign=bottom;endArrow=classic;edgeStyle=elbowEdgeStyle;elbow=vertical;curved=0;rounded=0;fontSize=12;startSize=8;endSize=8;endFill=1;" edge="1" parent="1" target="l3TF9qGdZywSD0NFVplU-35">
          <mxGeometry x="-0.1667" relative="1" as="geometry">
            <mxPoint x="340" y="249.72" as="sourcePoint" />
            <Array as="points">
              <mxPoint x="450" y="249.72" />
            </Array>
            <mxPoint as="offset" />
          </mxGeometry>
        </mxCell>
        <mxCell id="l3TF9qGdZywSD0NFVplU-37" value="&lt;font style=&quot;font-size: 10px;&quot;&gt;&lt;font style=&quot;font-size: 10px;&quot;&gt;Book&amp;nbsp;&lt;/font&gt;availability&lt;/font&gt;" style="html=1;verticalAlign=bottom;endArrow=classic;dashed=1;endSize=8;edgeStyle=elbowEdgeStyle;elbow=vertical;curved=0;rounded=0;fontSize=12;endFill=1;" edge="1" parent="1" source="l3TF9qGdZywSD0NFVplU-35">
          <mxGeometry relative="1" as="geometry">
            <mxPoint x="340" y="269.72" as="targetPoint" />
            <Array as="points">
              <mxPoint x="360" y="269.72" />
            </Array>
            <mxPoint as="offset" />
          </mxGeometry>
        </mxCell>
        <mxCell id="l3TF9qGdZywSD0NFVplU-38" value="&lt;font style=&quot;font-size: 10px;&quot;&gt;Reserve book for the user&lt;/font&gt;" style="html=1;verticalAlign=bottom;endArrow=classic;edgeStyle=orthogonalEdgeStyle;elbow=vertical;rounded=0;fontSize=12;startSize=8;endSize=8;endFill=1;jumpSize=3;" edge="1" parent="1" source="l3TF9qGdZywSD0NFVplU-24" target="l3TF9qGdZywSD0NFVplU-24">
          <mxGeometry x="-0.1429" y="30" relative="1" as="geometry">
            <mxPoint x="350" y="320" as="sourcePoint" />
            <Array as="points">
              <mxPoint x="370" y="300" />
              <mxPoint x="370" y="310" />
            </Array>
            <mxPoint x="430" y="310" as="targetPoint" />
            <mxPoint as="offset" />
          </mxGeometry>
        </mxCell>
        <mxCell id="l3TF9qGdZywSD0NFVplU-42" value="&lt;font style=&quot;font-size: 10px;&quot;&gt;Send reservation confirmation&lt;/font&gt;" style="html=1;verticalAlign=bottom;endArrow=classic;edgeStyle=elbowEdgeStyle;elbow=vertical;curved=0;rounded=0;fontSize=12;startSize=8;endSize=8;endFill=1;" edge="1" parent="1">
          <mxGeometry x="-0.4588" relative="1" as="geometry">
            <mxPoint x="341" y="343.0000000000001" as="sourcePoint" />
            <Array as="points">
              <mxPoint x="446" y="343" />
            </Array>
            <mxPoint x="596" y="343.0000000000001" as="targetPoint" />
            <mxPoint as="offset" />
          </mxGeometry>
        </mxCell>
        <mxCell id="l3TF9qGdZywSD0NFVplU-43" value="&lt;font style=&quot;font-size: 10px;&quot;&gt;Confirmation sent&lt;/font&gt;" style="html=1;verticalAlign=bottom;endArrow=classic;dashed=1;endSize=8;edgeStyle=elbowEdgeStyle;elbow=vertical;curved=0;rounded=0;fontSize=12;endFill=1;" edge="1" parent="1" source="l3TF9qGdZywSD0NFVplU-6" target="l3TF9qGdZywSD0NFVplU-24">
          <mxGeometry x="0.6078" relative="1" as="geometry">
            <mxPoint x="479" y="360" as="targetPoint" />
            <Array as="points">
              <mxPoint x="490" y="370" />
              <mxPoint x="380" y="360" />
              <mxPoint x="499" y="360" />
            </Array>
            <mxPoint as="offset" />
            <mxPoint x="599" y="360.28" as="sourcePoint" />
          </mxGeometry>
        </mxCell>
        <mxCell id="l3TF9qGdZywSD0NFVplU-44" value="" style="endArrow=classic;html=1;rounded=0;fontSize=12;startSize=8;endSize=8;curved=1;" edge="1" parent="1">
          <mxGeometry width="50" height="50" relative="1" as="geometry">
            <mxPoint x="330" y="391" as="sourcePoint" />
            <mxPoint x="162.5" y="391" as="targetPoint" />
          </mxGeometry>
        </mxCell>
        <mxCell id="l3TF9qGdZywSD0NFVplU-45" value="&lt;font style=&quot;font-size: 10px;&quot;&gt;&lt;font style=&quot;font-size: 10px;&quot;&gt;Display&lt;/font&gt;&amp;nbsp;reservation confirmation&lt;/font&gt;" style="edgeLabel;html=1;align=center;verticalAlign=middle;resizable=0;points=[];fontSize=16;" vertex="1" connectable="0" parent="l3TF9qGdZywSD0NFVplU-44">
          <mxGeometry x="-0.0618" relative="1" as="geometry">
            <mxPoint x="-2" y="-11" as="offset" />
          </mxGeometry>
        </mxCell>
        <mxCell id="l3TF9qGdZywSD0NFVplU-46" value="" style="endArrow=classic;html=1;rounded=0;fontSize=12;startSize=8;endSize=8;curved=1;" edge="1" parent="1">
          <mxGeometry width="50" height="50" relative="1" as="geometry">
            <mxPoint x="330" y="440" as="sourcePoint" />
            <mxPoint x="162.5" y="440" as="targetPoint" />
          </mxGeometry>
        </mxCell>
        <mxCell id="l3TF9qGdZywSD0NFVplU-47" value="&lt;font style=&quot;font-size: 10px;&quot;&gt;Display book unavaible message&lt;/font&gt;" style="edgeLabel;html=1;align=center;verticalAlign=middle;resizable=0;points=[];fontSize=16;" vertex="1" connectable="0" parent="l3TF9qGdZywSD0NFVplU-46">
          <mxGeometry x="-0.0618" relative="1" as="geometry">
            <mxPoint y="-11" as="offset" />
          </mxGeometry>
        </mxCell>
        <mxCell id="l3TF9qGdZywSD0NFVplU-48" value="" style="endArrow=none;dashed=1;html=1;rounded=0;fontSize=12;startSize=8;endSize=8;curved=1;exitX=0;exitY=0.71;exitDx=0;exitDy=0;exitPerimeter=0;entryX=1;entryY=0.695;entryDx=0;entryDy=0;entryPerimeter=0;" edge="1" parent="1" source="l3TF9qGdZywSD0NFVplU-11" target="l3TF9qGdZywSD0NFVplU-11">
          <mxGeometry width="50" height="50" relative="1" as="geometry">
            <mxPoint x="76.66499999999996" y="406.5799999999999" as="sourcePoint" />
            <mxPoint x="628.8900000000001" y="406.5799999999999" as="targetPoint" />
          </mxGeometry>
        </mxCell>
        <mxCell id="l3TF9qGdZywSD0NFVplU-51" value="&lt;font style=&quot;font-size: 12px;&quot;&gt;[Book available]&lt;/font&gt;" style="text;html=1;align=center;verticalAlign=middle;resizable=0;points=[];autosize=1;strokeColor=none;fillColor=none;fontSize=16;" vertex="1" parent="1">
          <mxGeometry x="153" y="274" width="110" height="30" as="geometry" />
        </mxCell>
        <mxCell id="l3TF9qGdZywSD0NFVplU-53" value="&lt;font style=&quot;font-size: 12px;&quot;&gt;[Book unavailable]&lt;/font&gt;" style="text;html=1;align=center;verticalAlign=middle;resizable=0;points=[];autosize=1;strokeColor=none;fillColor=none;fontSize=16;" vertex="1" parent="1">
          <mxGeometry x="154" y="399" width="120" height="30" as="geometry" />
        </mxCell>
        <mxCell id="l3TF9qGdZywSD0NFVplU-54" value="" style="html=1;points=[];perimeter=orthogonalPerimeter;outlineConnect=0;targetShapes=umlLifeline;portConstraint=eastwest;newEdgeStyle={&quot;edgeStyle&quot;:&quot;elbowEdgeStyle&quot;,&quot;elbow&quot;:&quot;vertical&quot;,&quot;curved&quot;:0,&quot;rounded&quot;:0};" vertex="1" parent="1">
          <mxGeometry x="330" y="503" width="10" height="50" as="geometry" />
        </mxCell>
        <mxCell id="l3TF9qGdZywSD0NFVplU-55" value="" style="html=1;points=[];perimeter=orthogonalPerimeter;outlineConnect=0;targetShapes=umlLifeline;portConstraint=eastwest;newEdgeStyle={&quot;edgeStyle&quot;:&quot;elbowEdgeStyle&quot;,&quot;elbow&quot;:&quot;vertical&quot;,&quot;curved&quot;:0,&quot;rounded&quot;:0};fontSize=16;" vertex="1" parent="1">
          <mxGeometry x="460" y="523" width="10" height="20" as="geometry" />
        </mxCell>
        <mxCell id="l3TF9qGdZywSD0NFVplU-56" value="" style="endArrow=classic;html=1;rounded=0;fontSize=12;startSize=8;endSize=8;curved=1;entryX=-0.015;entryY=-0.028;entryDx=0;entryDy=0;entryPerimeter=0;" edge="1" parent="1" target="l3TF9qGdZywSD0NFVplU-54">
          <mxGeometry width="50" height="50" relative="1" as="geometry">
            <mxPoint x="162.5" y="501.59999999999997" as="sourcePoint" />
            <mxPoint x="270" y="533" as="targetPoint" />
          </mxGeometry>
        </mxCell>
        <mxCell id="l3TF9qGdZywSD0NFVplU-57" value="&lt;font style=&quot;font-size: 10px;&quot;&gt;Return the book&lt;/font&gt;" style="edgeLabel;html=1;align=center;verticalAlign=middle;resizable=0;points=[];fontSize=16;" vertex="1" connectable="0" parent="l3TF9qGdZywSD0NFVplU-56">
          <mxGeometry x="-0.06" y="1" relative="1" as="geometry">
            <mxPoint x="-31" y="-10" as="offset" />
          </mxGeometry>
        </mxCell>
        <mxCell id="l3TF9qGdZywSD0NFVplU-58" value="" style="endArrow=classic;html=1;rounded=0;fontSize=12;startSize=8;endSize=8;curved=1;" edge="1" parent="1">
          <mxGeometry width="50" height="50" relative="1" as="geometry">
            <mxPoint x="330" y="553" as="sourcePoint" />
            <mxPoint x="162.5" y="553" as="targetPoint" />
          </mxGeometry>
        </mxCell>
        <mxCell id="l3TF9qGdZywSD0NFVplU-59" value="&lt;font style=&quot;font-size: 10px;&quot;&gt;Display return confirmation&lt;/font&gt;" style="edgeLabel;html=1;align=center;verticalAlign=middle;resizable=0;points=[];fontSize=16;" vertex="1" connectable="0" parent="l3TF9qGdZywSD0NFVplU-58">
          <mxGeometry x="-0.0618" relative="1" as="geometry">
            <mxPoint x="-15" y="-11" as="offset" />
          </mxGeometry>
        </mxCell>
        <mxCell id="l3TF9qGdZywSD0NFVplU-60" value="&lt;font style=&quot;font-size: 10px;&quot;&gt;Update book status&lt;/font&gt;" style="html=1;verticalAlign=bottom;endArrow=classic;edgeStyle=elbowEdgeStyle;elbow=vertical;curved=0;rounded=0;fontSize=12;startSize=8;endSize=8;endFill=1;" edge="1" parent="1" source="l3TF9qGdZywSD0NFVplU-54" target="l3TF9qGdZywSD0NFVplU-55">
          <mxGeometry relative="1" as="geometry">
            <mxPoint x="370" y="543" as="sourcePoint" />
            <Array as="points">
              <mxPoint x="450" y="523" />
            </Array>
          </mxGeometry>
        </mxCell>
        <mxCell id="l3TF9qGdZywSD0NFVplU-61" value="&lt;font style=&quot;font-size: 10px;&quot;&gt;Book returned&lt;/font&gt;" style="html=1;verticalAlign=bottom;endArrow=classic;dashed=1;endSize=8;edgeStyle=elbowEdgeStyle;elbow=vertical;curved=0;rounded=0;fontSize=12;endFill=1;" edge="1" parent="1" source="l3TF9qGdZywSD0NFVplU-55" target="l3TF9qGdZywSD0NFVplU-54">
          <mxGeometry relative="1" as="geometry">
            <mxPoint x="370" y="618" as="targetPoint" />
            <Array as="points">
              <mxPoint x="360" y="543" />
            </Array>
            <mxPoint as="offset" />
          </mxGeometry>
        </mxCell>
      </root>
    </mxGraphModel>
  </diagram>
</mxfile>
